<svg xmlns="http://www.w3.org/2000/svg" width="23" height="31" viewBox="0 0 189.922 256"><path stroke-miterlimit="10" d="M15.709.013c.42-.048.907.046 1.312.169.915.279 1.66.877 2.101 1.73.459.873.547 1.896.244 2.835-.384 1.159-1.208 1.741-2.237 2.277l.012 3.38c.735.224 1.451.479 2.119.866 1.535.89 2.585 2.39 3.025 4.097a6.98 6.98 0 0 1-.736 5.289c-.86 1.446-2.229 2.515-3.868 2.924-2.142.535-3.958-.045-5.8-1.14-.813.87-1.617 1.751-2.41 2.64.354.837.471 1.715.236 2.604-.23.87-.839 1.614-1.618 2.055-.873.494-1.868.584-2.825.31-.95-.272-1.749-.86-2.213-1.745-.457-.87-.496-1.888-.2-2.816.338-1.055 1.025-1.705 1.99-2.187 1.039-.406 1.897-.272 2.911.093.844-.889 1.64-1.822 2.493-2.702-.937-1.839-1.241-3.405-.754-5.431-1.061-.495-2.085-1.073-3.147-1.57-.568.591-1.261.996-2.075 1.134-.972.163-1.997-.102-2.795-.672a3.557 3.557 0 0 1-1.44-2.415c-.131-.94.116-1.975.718-2.716.62-.765 1.583-1.226 2.555-1.327a3.61 3.61 0 0 1 2.648.81c.946.791 1.218 1.776 1.333 2.95 1.007.617 2.16 1.093 3.208 1.644 1.365-1.613 2.363-2.122 4.352-2.735l.002-3.355a4.623 4.623 0 0 1-1.023-.544A3.597 3.597 0 0 1 12.4 4.042a3.639 3.639 0 0 1 .755-2.695C13.812.523 14.69.147 15.71.013zm4.387 16.686a4.214 4.214 0 1 0-8.395.738 4.214 4.214 0 0 0 8.395-.737z" font-family="none" font-size="none" font-weight="none" style="mix-blend-mode:normal" text-anchor="none" transform="translate(2.019 3.297) scale(8.25806)"/></svg>