<svg xmlns="http://www.w3.org/2000/svg" aria-hidden="true" style="position:absolute;width:0;height:0;overflow:hidden">
    <defs>
        <symbol id="icon-instagram" viewBox="0 0 32 32">
            <path
                d="M15.998 6.161c3.206 0 3.585.014 4.846.071 1.172.052 1.804.248 2.226.412.558.216.961.478 1.378.895.422.422.679.82.9 1.378.164.422.361 1.059.412 2.226.056 1.266.07 1.645.07 4.847s-.014 3.585-.07 4.847c-.052 1.172-.248 1.804-.412 2.227a3.7 3.7 0 0 1-.895 1.378c-.422.422-.82.679-1.378.9-.422.164-1.06.361-2.226.412-1.266.056-1.645.07-4.847.07s-3.585-.014-4.847-.07c-1.172-.052-1.804-.248-2.226-.412a3.7 3.7 0 0 1-1.378-.895 3.8 3.8 0 0 1-.9-1.378c-.164-.422-.361-1.06-.412-2.227-.056-1.266-.071-1.645-.071-4.847s.014-3.585.071-4.847c.052-1.172.248-1.804.412-2.226.216-.558.478-.961.895-1.378.422-.422.82-.679 1.378-.9.422-.164 1.059-.361 2.226-.412 1.261-.056 1.641-.071 4.847-.071zm0-2.16c-3.258 0-3.665.014-4.945.071-1.275.056-2.152.262-2.91.558a5.85 5.85 0 0 0-2.127 1.387A5.9 5.9 0 0 0 4.629 8.14c-.295.764-.502 1.636-.558 2.91C4.015 12.335 4 12.742 4 15.999s.014 3.665.071 4.945c.056 1.275.262 2.151.558 2.91a5.9 5.9 0 0 0 1.387 2.127 5.9 5.9 0 0 0 2.123 1.383c.764.296 1.636.502 2.91.558 1.279.056 1.687.07 4.945.07s3.666-.014 4.945-.07c1.275-.056 2.151-.262 2.91-.558.787-.304 1.458-.717 2.123-1.383s1.078-1.336 1.383-2.123c.295-.764.502-1.636.558-2.91.056-1.279.07-1.687.07-4.945s-.014-3.665-.07-4.945c-.056-1.275-.262-2.151-.558-2.91a5.6 5.6 0 0 0-1.373-2.133 5.9 5.9 0 0 0-2.123-1.383c-.764-.295-1.636-.502-2.91-.558-1.284-.061-1.692-.075-4.949-.075L15.999 4z" />
            <path
                d="M15.998 9.836a6.164 6.164 0 1 0 0 12.324 6.164 6.164 0 0 0 .001-12.324zm0 10.161a3.998 3.998 0 1 1 0-7.996 3.998 3.998 0 0 1 0 7.996m7.845-10.405a1.439 1.439 0 1 1-2.877 0 1.439 1.439 0 0 1 2.877 0" />
        </symbol>
        <symbol id="icon-caret-right" viewBox="0 0 32 32">
            <path d="M12 25.333 22.667 16 12 6.667v18.667z" />
        </symbol>
        <symbol id="icon-down-arrow-alt" viewBox="0 0 32 32">
            <path
                d="m24.943 16.943-1.885-1.885-5.724 5.724V8.001h-2.667v12.781l-5.724-5.724-1.885 1.885 8.943 8.943z" />
        </symbol>
        <symbol id="icon-youtube" viewBox="0 0 32 32">
            <path
                d="M28.791 9.604a3.35 3.35 0 0 0-2.349-2.354c-2.088-.573-10.441-.583-10.441-.583s-8.352-.009-10.441.539a3.42 3.42 0 0 0-2.354 2.371c-.551 2.088-.556 6.419-.556 6.419s-.005 4.352.541 6.419a3.34 3.34 0 0 0 2.351 2.353c2.109.573 10.44.583 10.44.583s8.353.009 10.441-.537a3.36 3.36 0 0 0 2.356-2.35c.552-2.087.556-6.416.556-6.416s.027-4.353-.543-6.441zM13.328 20.007l.007-8 6.943 4.007z" />
        </symbol>
        <symbol id="icon-burger" viewBox="0 0 32 32">
            <path d="M10.667 12h10.667v1.333H10.667zm2.666 3.333h8v1.333h-8zm3.334 3.334h4.667V20h-4.667z" />
        </symbol>
        <symbol id="icon-company-logo" viewBox="0 0 75 32">
            <path
                d="M13.735 6.675c.264-.03.569.029.823.106.575.175 1.042.55 1.319 1.085.288.548.343 1.19.153 1.779-.241.727-.758 1.092-1.404 1.428l.007 2.121c.461.141.911.301 1.33.543.963.558 1.622 1.5 1.898 2.571a4.38 4.38 0 0 1-.462 3.318c-.539.908-1.398 1.578-2.427 1.835-1.344.336-2.483-.028-3.638-.715a95 95 0 0 0-1.513 1.656c.223.525.296 1.076.148 1.634a2.13 2.13 0 0 1-1.015 1.289 2.28 2.28 0 0 1-1.773.195c-.596-.171-1.097-.54-1.389-1.095-.287-.546-.311-1.185-.125-1.767.212-.662.643-1.07 1.248-1.372.652-.255 1.19-.171 1.827.058.53-.558 1.029-1.143 1.564-1.695-.588-1.154-.779-2.136-.473-3.407-.666-.311-1.309-.673-1.975-.985a2.32 2.32 0 0 1-1.302.711 2.38 2.38 0 0 1-1.754-.422 2.23 2.23 0 0 1-.903-1.515c-.082-.589.073-1.239.45-1.704.389-.48.993-.769 1.603-.833a2.27 2.27 0 0 1 1.662.508c.593.497.764 1.115.836 1.851.632.387 1.355.686 2.013 1.032.856-1.012 1.482-1.332 2.73-1.716l.001-2.105a3 3 0 0 1-.642-.341 2.26 2.26 0 0 1-.895-1.52 2.28 2.28 0 0 1 .474-1.691c.412-.517.963-.752 1.602-.837zm2.753 10.47a2.644 2.644 0 1 0-5.268.465 2.644 2.644 0 0 0 5.268-.466zm49.342-3.288q.645.002 1.291.018l-.002 2.275c.332-.258.693-.45 1.113-.512a2.13 2.13 0 0 1 1.603.407c.552.418.841 1.121.925 1.792.107.852-.094 1.671-.619 2.35a2.34 2.34 0 0 1-1.251.651c-.708.116-1.269-.131-1.822-.544l-.002.497-1.235-.002zm2.212 2.981c-.384.128-.651.31-.838.68-.208.41-.222.916-.06 1.344.124.327.356.61.68.756.234.106.456.11.708.094.401-.151.671-.346.852-.747a1.7 1.7 0 0 0 .007-1.346 1.3 1.3 0 0 0-.715-.714 1.3 1.3 0 0 0-.633-.067zm-39.19-2.994c.757 2.334 1.727 4.604 2.465 6.945l-1.396.002c-.164-.5-.321-1.065-.571-1.527-.163-.07-.356-.046-.531-.044q-1.01.01-2.02-.007a20 20 0 0 0-.549 1.578l-1.422-.001c.742-2.33 1.627-4.63 2.429-6.942.53.012 1.063-.001 1.594-.003zm-.796 1.725c-.294.835-.568 1.682-.89 2.507l1.022-.001.794-.009c-.112-.315-.76-2.358-.927-2.498zm30.223-1.711 1.335.008c-.018 1.609-.004 3.22-.004 4.83 0 .664.067 1.39-.008 2.045l-.073.05h-1.251l-.003-2.971c-1-.028-2.008-.003-3.008-.002v2.975l-1.343-.003.005-6.93 1.338.003.001 2.834h3.013l-.002-2.838zm2.138 1.921c.443.013.887.008 1.33.01-.005.708-.117 2.665.054 3.25.068.231.203.442.421.555.329.169.663.071.99-.044.144-.162.269-.313.341-.522.234-.683.109-2.435.105-3.248.422.011.845.002 1.267 0-.01.486-.002.975-.002 1.462l.006 3.546q-.622.009-1.244-.009l-.038-.045a1.2 1.2 0 0 0-.011-.296c-.389.168-.735.424-1.177.433-.513.01-1.069-.149-1.437-.518-.279-.279-.449-.654-.537-1.035-.188-.819-.077-2.633-.069-3.54zm-17.941-.139c.662-.052 1.352-.005 1.887.441.375.312.496.687.537 1.153l-1.196-.001c-.069-.128-.138-.276-.246-.376a.91.91 0 0 0-.655-.229c-.181.01-.413.082-.526.235-.068.093-.106.189-.08.306.136.613 1.696.538 2.192.862.316.207.558.578.629.948.07.378-.02.769-.248 1.079-.381.526-.968.714-1.58.808-.566.034-1.222-.118-1.675-.462-.425-.323-.577-.72-.635-1.231q.604.001 1.209-.011c.024.076.05.149.088.219.175.324.526.396.851.491.215-.049.505-.104.657-.278a.48.48 0 0 0 .085-.42c-.149-.513-1.643-.573-2.162-.892-.307-.189-.533-.465-.614-.82-.074-.322-.046-.684.135-.966.327-.511.778-.72 1.347-.856m8.05-.002c.377-.03.746-.028 1.113.071.424.115.874.351 1.088.753.103.192.182.538.113.752-.343.074-.763.024-1.115.02-.052-.175-.096-.309-.238-.43a.86.86 0 0 0-.646-.196c-.182.019-.416.108-.518.271-.061.097-.086.197-.047.309.22.649 1.541.495 2.055.788.327.187.601.516.693.884.1.395.034.834-.194 1.174-.34.507-.881.698-1.451.809-.56.069-1.209-.05-1.677-.373-.481-.331-.625-.747-.733-1.29l1.199-.009c.073.183.139.327.295.454.207.17.453.247.72.211a.78.78 0 0 0 .535-.296.46.46 0 0 0 .083-.39c-.15-.534-1.474-.5-2-.783a1.52 1.52 0 0 1-.749-.9 1.22 1.22 0 0 1 .119-.972c.29-.492.822-.733 1.356-.856zm-14.764-1.235c.398.014.799.005 1.198.007q-.006.675.02 1.349l1.182.001-.003 1.03h-1.125c0 .648-.148 2.32.15 2.821.232.183.696.115.978.111l-.004.853c.003.088.002.132-.043.209a1.1 1.1 0 0 1-.492.094c-.457.004-1.088-.079-1.417-.421-.66-.687-.449-2.709-.446-3.668l-.762.001.002-1.032.759.005.004-1.359zm10.272-.005 1.175.007c-.009.45.01.903.018 1.353l1.201-.002-.002 1.035-1.13-.001c.014.617-.137 2.34.142 2.807.3.179.677.131 1.014.131-.004.297.002.595.003.893l-.014.113c-.116.123-.295.118-.454.122-.483.012-1.15-.065-1.5-.431-.653-.684-.45-2.678-.444-3.634h-.804c-.01-.343-.006-.686-.009-1.029l.801.004.002-1.367zm-25.359-.77a1 1 0 0 1 .183.005c.192.028.381.121.487.289.112.179.128.417.143.625.076 1.026.02 2.094.019 3.123 0 .841.093 1.981-.063 2.791-.049.255-.218.376-.42.514-.077.009-.158.02-.235.016a.64.64 0 0 1-.45-.219c-.111-.131-.108-.394-.118-.558-.071-1.18-.011-2.398-.01-3.582.001-.673-.092-1.961.05-2.561.051-.215.244-.327.413-.442zm13.629 2.113.169-.002c.2.224.101.933.094 1.227-.423-.004-.823-.021-1.154.286-.622.577-.412 2.69-.418 3.538-.333-.003-.983.119-1.237-.093l-.013-.21c.006-1.572-.033-3.142-.023-4.713.403.013.808.004 1.212.002l-.014.694c.075-.107.149-.223.236-.321.306-.345.721-.376 1.149-.407zm4.591.021 1.268.001.003 5.03-1.282-.002zm-19.991-.486c.208.038.392.117.514.297.187.279.192 3.012.098 3.402-.051.213-.236.317-.411.42-.2-.012-.464-.03-.597-.203-.199-.258-.183-3.163-.069-3.527.066-.212.283-.301.465-.389m20.542-1.586a.701.701 0 1 1 .164 1.395.701.701 0 0 1-.164-1.396z" />
        </symbol>
        <symbol id="icon-close" viewBox="0 0 32 32">
            <path
                d="m18.795 12.229-2.829 2.828-2.828-2.828-.943.943L15.023 16l-2.828 2.828.943.943 2.828-2.828 2.829 2.828.943-.943L16.91 16l2.828-2.828z" />
        </symbol>
        <symbol id="icon-logo" viewBox="0 0 32 32">
            <path
                d="M17.5 3.14c.384-.041.83.039 1.2.144.838.238 1.518.747 1.922 1.474.42.745.5 1.616.223 2.417-.352.988-1.105 1.485-2.047 1.941l.011 2.881c.673.191 1.328.408 1.939.738a5.67 5.67 0 0 1 2.768 3.493 5.6 5.6 0 0 1-.673 4.508 5.72 5.72 0 0 1-3.539 2.492c-1.959.456-3.621-.038-5.305-.971q-1.116 1.113-2.206 2.25c.325.713.432 1.462.217 2.22-.21.741-.768 1.376-1.48 1.751-.799.421-1.709.498-2.584.264-.869-.232-1.599-.733-2.024-1.487-.418-.741-.453-1.609-.182-2.4.308-.899.937-1.453 1.82-1.864.95-.346 1.736-.232 2.664.079.772-.757 1.5-1.553 2.28-2.304-.858-1.567-1.136-2.902-.69-4.629-.971-.422-1.907-.914-2.879-1.337a3.47 3.47 0 0 1-1.899.966 3.67 3.67 0 0 1-2.556-.573c-.724-.489-1.2-1.233-1.317-2.059-.12-.801.106-1.683.656-2.315.567-.652 1.448-1.044 2.337-1.131a3.47 3.47 0 0 1 2.422.69c.865.675 1.115 1.514 1.22 2.515.921.526 1.976.932 2.935 1.402 1.248-1.375 2.16-1.809 3.98-2.332l.002-2.859a4.3 4.3 0 0 1-.935-.464c-.718-.495-1.189-1.24-1.306-2.065a2.95 2.95 0 0 1 .691-2.297c.601-.702 1.404-1.022 2.336-1.137zm4.012 14.222c-.185-1.967-2.04-3.425-4.152-3.265-2.131.162-3.713 1.908-3.527 3.892s2.072 3.448 4.2 3.262c2.11-.185 3.663-1.922 3.478-3.889zm6.105-4.776c.09-.004.178-.005.267.007.28.038.556.164.71.393.164.243.186.567.208.849.111 1.394.029 2.844.028 4.243 0 1.142.136 2.691-.092 3.792-.072.346-.318.511-.612.698-.112.013-.23.027-.343.021a.95.95 0 0 1-.656-.298c-.162-.178-.157-.535-.171-.759-.103-1.603-.016-3.258-.014-4.866.001-.914-.134-2.663.072-3.479.074-.292.356-.445.603-.6zm-2.582 2.239c.304.052.572.158.749.404.273.379.28 4.091.144 4.621-.075.29-.344.431-.599.57-.292-.016-.676-.04-.871-.276-.29-.351-.266-4.296-.101-4.791.096-.287.413-.409.678-.528" />
        </symbol>
        <symbol id="icon-facebook" viewBox="0 0 32 32">
            <path
                d="M29.333 16.405C29.333 8.996 23.363 2.99 16 2.99S2.667 8.996 2.667 16.405c0 6.696 4.876 12.245 11.25 13.252v-9.374h-3.385v-3.878h3.385V13.45c0-3.362 1.991-5.219 5.036-5.219 1.459 0 2.985.262 2.985.262v3.301h-1.681c-1.656 0-2.173 1.034-2.173 2.095v2.516h3.698l-.591 3.878h-3.107v9.374c6.374-1.006 11.25-6.556 11.25-13.252z" />
        </symbol>
        <symbol id="icon-star" viewBox="0 0 34 32">
            <path
                d="M15.277 1.031c.579-1.375 2.551-1.375 3.13 0l3.417 8.116c.244.58.796.976 1.43 1.026l8.869.702c1.503.119 2.112 1.972.967 2.941l-6.757 5.718a1.66 1.66 0 0 0-.546 1.66l2.064 8.55c.35 1.449-1.245 2.594-2.532 1.817l-7.593-4.582a1.71 1.71 0 0 0-1.767 0l-7.593 4.582c-1.287.776-2.882-.369-2.532-1.817l2.064-8.55a1.66 1.66 0 0 0-.546-1.66L.595 13.816c-1.145-.969-.536-2.822.967-2.941l8.869-.702a1.69 1.69 0 0 0 1.429-1.026z" />
        </symbol>
        <symbol id="icon-right-arrow" viewBox="0 0 32 32">
            <path
                d="M7.381 29.181a1.34 1.34 0 0 0 1.378-.085l17.333-12a1.33 1.33 0 0 0 .422-1.715 1.3 1.3 0 0 0-.422-.477l-17.333-12a1.327 1.327 0 0 0-2.092 1.095v24a1.333 1.333 0 0 0 .714 1.181zM9.333 6.545 22.99 16 9.333 25.455z" />
        </symbol>
        <symbol id="icon-modal-close" viewBox="0 0 32 32">
            <path
                d="M22.835 22.364l-0.471 0.471c-0.26 0.26-0.682 0.26-0.943 0l-5.421-5.421-5.421 5.421c-0.26 0.26-0.682 0.26-0.943 0l-0.471-0.471c-0.26-0.26-0.26-0.682 0-0.943l5.421-5.421-5.421-5.421c-0.26-0.26-0.26-0.682 0-0.943l0.471-0.471c0.26-0.26 0.682-0.26 0.943 0l5.421 5.421 5.421-5.421c0.26-0.26 0.683-0.26 0.943 0l0.471 0.471c0.26 0.26 0.26 0.682 0 0.943l-5.421 5.421 5.421 5.421c0.26 0.26 0.26 0.683 0 0.943z">
            </path>
        </symbol>
        <symbol id="icon-chevron-down" viewBox="0 0 32 32">
            <path d="M21.724 11.057 16 16.781l-5.724-5.724-1.885 1.885L16 20.551l7.609-7.609-1.885-1.885z" />
        </symbol>
        <symbol id="icon-chevron-up" viewBox="0 0 32 32">
            <path d="m8.391 19.057 1.885 1.885L16 15.218l5.724 5.724 1.885-1.885L16 11.448l-7.609 7.609z" />
        </symbol>
        <symbol id="icon-search" viewBox="0 0 32 32">
            <path
                d="M13.333 24a10.603 10.603 0 0 0 6.529-2.251l5.861 5.861 1.885-1.885-5.861-5.861a10.602 10.602 0 0 0 2.252-6.531c0-5.881-4.785-10.667-10.667-10.667S2.665 7.451 2.665 13.333C2.665 19.214 7.45 24 13.332 24zm0-18.667c4.412 0 8 3.588 8 8s-3.588 8-8 8-8-3.588-8-8 3.588-8 8-8z" />
        </symbol>
        <symbol id="icon-error-circle" viewBox="0 0 32 32">
<path d="M15.938 2.667c-7.317 0-13.271 5.981-13.271 13.333s5.981 13.333 13.333 13.333c7.352 0 13.333-5.981 13.333-13.333s-6.009-13.333-13.396-13.333zM16.001 26.667c-5.881 0-10.667-4.785-10.667-10.667s4.756-10.667 10.604-10.667c5.917 0 10.729 4.785 10.729 10.667s-4.785 10.667-10.667 10.667z"></path>
<path d="M14.667 9.333h2.667v9.333h-2.667v-9.333zM14.667 20h2.667v2.667h-2.667v-2.667z"></path>
</symbol>
    </defs>
</svg>